<svg width="40" height="40" viewBox="0 0 40 40" fill="none" xmlns="http://www.w3.org/2000/svg">
<path d="M4.59473 14.1464L6.2216 15.2404C6.4265 15.3784 6.68926 15.3834 6.89701 15.2504C7.45859 14.8894 8.11218 14.6894 8.78949 14.6894C9.18885 14.6894 9.58253 14.7584 9.96008 14.8934L9.99138 14.9044L10.0104 14.9124L11.5338 15.4614C11.7539 15.5404 11.9967 15.4954 12.1751 15.3384C12.2301 15.2904 12.2861 15.2424 12.342 15.1954C12.6124 14.9684 12.6778 14.5624 12.491 14.2554L9.37383 9.10643C9.16229 8.75743 8.71455 8.67143 8.40056 8.91843C6.88752 10.1084 5.54429 11.5244 4.41544 13.1194C4.18114 13.4514 4.26272 13.9234 4.59378 14.1464H4.59473Z" fill="white"/>
<path d="M27.6972 6.54243C25.9935 5.76642 24.1646 5.23942 22.2493 5.00642C21.8595 4.95942 21.5132 5.26942 21.4961 5.68242L21.2391 11.7834C21.2239 12.1484 21.4734 12.4654 21.8168 12.5194C22.7521 12.6664 23.6533 12.9224 24.507 13.2774C24.8296 13.4114 25.1967 13.2694 25.357 12.9454L28.0283 7.52542C28.2085 7.15842 28.0567 6.70743 27.6972 6.54343V6.54243Z" fill="white"/>
<path d="M1.34575 23.7664L7.13322 24.0374C7.47947 24.0534 7.78018 23.7914 7.83045 23.4304C7.84089 23.3554 7.85227 23.2804 7.8646 23.2064C7.9035 22.9654 7.81907 22.7204 7.64452 22.5604L6.39331 21.4084C5.55948 20.6404 5.12881 19.5374 5.15442 18.4274C5.16011 18.1724 5.02256 17.9384 4.80818 17.8214L3.09404 16.8824C2.7459 16.6924 2.31807 16.8524 2.1625 17.2314C1.42543 19.0244 0.925512 20.9534 0.704486 22.9724C0.659901 23.3834 0.95397 23.7484 1.34575 23.7664Z" fill="white"/>
<path d="M14.6396 12.9444C14.7999 13.2694 15.166 13.4104 15.4895 13.2764C16.3442 12.9214 17.2444 12.6644 18.1798 12.5184C18.5232 12.4644 18.7726 12.1484 18.7575 11.7824L18.5004 5.68142C18.4833 5.26842 18.1371 4.95842 17.7472 5.00542C15.8329 5.23842 14.0021 5.76442 12.2984 6.54142C11.9389 6.70542 11.7871 7.15742 11.9673 7.52342L14.6396 12.9434V12.9444Z" fill="white"/>
<path d="M7.83139 27.2614C7.78016 26.9004 7.4804 26.6364 7.13416 26.6534L1.34573 26.9244C0.954907 26.9424 0.659889 27.3064 0.704474 27.7164C0.975776 30.1944 1.66637 32.5384 2.70035 34.6654C2.90999 35.0974 3.45545 35.1914 3.78082 34.8484L8.17573 30.2154C8.35787 30.0234 8.41858 29.7384 8.33605 29.4804C8.10838 28.7674 7.93858 28.0254 7.83044 27.2624L7.83139 27.2614Z" fill="white"/>
<path d="M38.6508 26.9234L32.8633 26.6524C32.5171 26.6364 32.2164 26.8994 32.1661 27.2614C32.0589 28.0244 31.8882 28.7654 31.6605 29.4784C31.578 29.7364 31.6387 30.0214 31.8208 30.2134L36.2176 34.8464C36.543 35.1894 37.0885 35.0954 37.2981 34.6634C38.3311 32.5364 39.0217 30.1924 39.2921 27.7144C39.3367 27.3044 39.0416 26.9414 38.6508 26.9234Z" fill="white"/>
<path d="M35.5801 13.1204C34.4513 11.5254 33.1081 10.1094 31.595 8.91943C31.2801 8.67243 30.8323 8.75843 30.6208 9.10743L27.5046 14.2564C27.3187 14.5644 27.3841 14.9694 27.6554 15.1974C28.383 15.8094 29.0442 16.5064 29.6248 17.2734C29.841 17.5584 30.2252 17.6284 30.5174 17.4324L35.4018 14.1474C35.7329 13.9244 35.8144 13.4524 35.5801 13.1204V13.1204Z" fill="white"/>
<path d="M32.8624 24.0364L38.6499 23.7654C39.0416 23.7474 39.3357 23.3824 39.2911 22.9714C39.0701 20.9524 38.5711 19.0234 37.835 17.2284C37.6794 16.8494 37.2507 16.6884 36.9035 16.8794L31.761 19.6954C31.4527 19.8644 31.318 20.2514 31.4461 20.5914C31.7829 21.4924 32.0257 22.4414 32.1652 23.4274C32.2164 23.7894 32.5161 24.0524 32.8633 24.0364H32.8624Z" fill="white"/>
<path d="M22.4267 20.9124C22.1213 20.7264 21.8054 20.5814 21.4838 20.4724L9.56546 16.1794L9.54744 16.1714C8.50302 15.7964 7.32105 16.2364 6.74809 17.2804C6.17608 18.3254 6.40659 19.6254 7.23663 20.3894L7.25085 20.4024L16.737 29.1374C16.9874 29.3764 17.2653 29.5914 17.5708 29.7764C19.892 31.1894 22.8612 30.3504 24.2016 27.9034C25.542 25.4544 24.7461 22.3244 22.4248 20.9114L22.4267 20.9124Z" fill="#59FFF5"/>
</svg>
