<svg width="32" height="32" viewBox="0 0 32 32" fill="none" xmlns="http://www.w3.org/2000/svg">
<g clip-path="url(#clip0_18_135)">
<path fill-rule="evenodd" clip-rule="evenodd" d="M-5.33334 0H55.4667V2.46253H-5.33334V0ZM-5.33334 4.925H55.4667V7.38753H-5.33334V4.925ZM-5.33334 9.84373H55.4667V12.3125H-5.33334V9.84373ZM-5.33334 14.7687H55.4667V17.2313H-5.33334V14.7687ZM-5.33334 19.6937H55.4667V22.1563H-5.33334V19.6937ZM-5.33334 24.6125H55.4667V27.075H-5.33334V24.6125ZM-5.33334 29.5375H55.4667V32H-5.33334V29.5375Z" fill="#BD3D44"/>
<path fill-rule="evenodd" clip-rule="evenodd" d="M-5.33334 2.46253H55.4667V4.925H-5.33334V2.46253ZM-5.33334 7.38747H55.4667V9.84373H-5.33334V7.38747ZM-5.33334 12.3063H55.4667V14.7687H-5.33334V12.3063ZM-5.33334 17.2313H55.4667V19.6937H-5.33334V17.2313ZM-5.33334 22.1563H55.4667V24.6187H-5.33334V22.1563ZM-5.33334 27.075H55.4667V29.5375H-5.33334V27.075Z" fill="white"/>
<path fill-rule="evenodd" clip-rule="evenodd" d="M-5.33334 0H18.9854V17.2313H-5.33334V0Z" fill="#192F5D"/>
<path fill-rule="evenodd" clip-rule="evenodd" d="M-3.30834 0.737534L-3.08334 1.41867H-2.3708L-2.94587 1.83747L-2.72707 2.52493L-3.30834 2.09993L-3.88334 2.51867L-3.6646 1.83747L-4.2458 1.41867H-3.5208L-3.30834 0.737534ZM0.74793 0.737534L0.966663 1.41867H1.6854L1.10413 1.83747L1.32293 2.52493L0.74793 2.09993L0.166663 2.51867L0.385397 1.83747L-0.189604 1.41867H0.52293L0.74793 0.737534ZM4.79793 0.737534L5.02293 1.41873H5.7292L5.1542 1.83753L5.37286 2.525L4.79166 2.1L4.21666 2.51873L4.4354 1.83753L3.85413 1.41873H4.57293L4.79793 0.737534ZM8.8542 0.737534L9.07286 1.41873H9.79166L9.2104 1.83753L9.4354 2.525L8.85413 2.1L8.27293 2.51873L8.49793 1.83753L7.91666 1.41873H8.6292L8.8542 0.737534ZM12.9042 0.737534L13.1292 1.41873H13.8417L13.2667 1.83753L13.4854 2.525L12.9041 2.1L12.3291 2.51873L12.5479 1.83753L11.9729 1.41873H12.6854L12.9042 0.737534ZM16.9604 0.737534L17.1791 1.41873H17.8979L17.3167 1.83753L17.5417 2.525L16.9604 2.1L16.3791 2.51873L16.6041 1.83753L16.0229 1.41873H16.7417L16.9604 0.737534ZM-1.27707 2.4624L-1.05834 3.14373H-0.339604L-0.920871 3.5624L-0.708337 4.24373L-1.27087 3.82493L-1.85207 4.24367L-1.64587 3.56247L-2.20834 3.14367H-1.4958L-1.27707 2.4624ZM2.77293 2.4624L2.99793 3.14373H3.7104L3.12913 3.5624L3.3542 4.24373L2.77286 3.82493L2.19166 4.24367L2.41666 3.56247L1.8354 3.14367H2.55413L2.77293 2.4624ZM6.8292 2.4624L7.04786 3.14373H7.76666L7.1854 3.5624L7.40413 4.24373L6.82913 3.82493L6.24793 4.24367L6.46666 3.56253L5.89166 3.14373H6.6042L6.8292 2.4624ZM10.8792 2.4624L11.1042 3.14373H11.8167L11.2354 3.5624L11.4604 4.24373L10.8791 3.82493L10.3041 4.24367L10.5229 3.56247L9.94166 3.14367H10.6667L10.8792 2.4624ZM14.9354 2.4624L15.1541 3.14373H15.8729L15.2917 3.5624L15.5104 4.24373L14.9354 3.82493L14.3541 4.24367L14.5729 3.56247L13.9979 3.14367H14.7104L14.9354 2.4624ZM-3.30834 4.18133L-3.08334 4.87507H-2.3708L-2.94587 5.2938L-2.72707 5.97507L-3.30834 5.55007L-3.88334 5.97507L-3.6646 5.28753L-4.2458 4.86887H-3.5208L-3.30834 4.18133ZM0.74793 4.18133L0.966663 4.86867H1.6854L1.10413 5.2874L1.32293 5.96873L0.74793 5.54367L0.166663 5.96867L0.385397 5.2812L-0.189604 4.86247H0.52293L0.74793 4.18133ZM4.79793 4.18133L5.02293 4.8688H5.7292L5.1542 5.28753L5.37286 5.96887L4.79166 5.5438L4.21666 5.9688L4.4354 5.28133L3.85413 4.8626H4.57293L4.79793 4.18133ZM8.8542 4.18133L9.07286 4.8688H9.79166L9.2104 5.28753L9.4354 5.96887L8.85413 5.5438L8.27293 5.9688L8.49793 5.28133L7.91666 4.8626H8.6292L8.8542 4.18133ZM12.9042 4.18133L13.1292 4.8688H13.8417L13.2667 5.28747L13.4854 5.9688L12.9041 5.54373L12.3291 5.96873L12.5479 5.28127L11.9729 4.86253H12.6854L12.9042 4.18133ZM16.9604 4.18133L17.1791 4.8688H17.8979L17.3167 5.28753L17.5417 5.96887L16.9604 5.5438L16.3791 5.9688L16.6041 5.28133L16.0229 4.8626H16.7417L16.9604 4.18133ZM-1.27707 5.90627L-1.05834 6.58753H-0.339604L-0.920871 7.0062L-0.70207 7.69373L-1.27707 7.26873L-1.85834 7.68747L-1.6396 7.00627L-2.2146 6.58753H-1.502L-1.27707 5.90627ZM2.77293 5.90627L2.99793 6.58753H3.7104L3.12913 7.0062L3.3542 7.69373L2.77286 7.26873L2.19166 7.68747L2.41666 7.00627L1.8354 6.58753H2.55413L2.77293 5.90627ZM6.8292 5.90627L7.04786 6.58753H7.76666L7.1854 7.0062L7.40413 7.69373L6.82913 7.26873L6.24793 7.68747L6.46666 7.00627L5.89166 6.58753H6.6042L6.8292 5.90627ZM10.8792 5.90627L11.1042 6.58753H11.8167L11.2417 7.0062L11.4604 7.69373L10.8791 7.26873L10.3041 7.68747L10.5229 7.00627L9.94166 6.58753H10.6667L10.8792 5.90627ZM14.9354 5.90627L15.1541 6.58753H15.8729L15.2917 7.0062L15.5104 7.69373L14.9354 7.26873L14.3541 7.68747L14.5729 7.00627L13.9979 6.58753H14.7104L14.9354 5.90627ZM-3.30834 7.63127L-3.08334 8.31253H-2.3708L-2.94587 8.7312L-2.72707 9.41873L-3.30834 8.99373L-3.88334 9.41247L-3.6646 8.73127L-4.2458 8.31253H-3.5208L-3.30834 7.63127ZM0.74793 7.63127L0.966663 8.31253H1.6854L1.10413 8.7312L1.32293 9.41253L0.74793 8.99373L0.166663 9.41247L0.385397 8.73127L-0.189604 8.31253H0.52293L0.74793 7.63127ZM4.79793 7.63127L5.02293 8.31253H5.7292L5.1542 8.7312L5.37286 9.41873L4.79166 8.99373L4.21666 9.41247L4.4354 8.73127L3.85413 8.31253H4.57293L4.79793 7.63127ZM8.8542 7.63127L9.07286 8.31253H9.79166L9.2104 8.7312L9.4354 9.41873L8.85413 8.99373L8.27293 9.41247L8.49793 8.73127L7.91666 8.31253H8.6292L8.8542 7.63127ZM12.9042 7.63127L13.1292 8.31253H13.8417L13.2667 8.7312L13.4854 9.41873L12.9041 8.99373L12.3291 9.41247L12.5479 8.73127L11.9729 8.31253H12.6854L12.9042 7.63127ZM16.9604 7.63127L17.1791 8.31253H17.8979L17.3167 8.7312L17.5417 9.41873L16.9604 8.99373L16.3791 9.41247L16.6041 8.73127L16.0229 8.31253H16.7417L16.9604 7.63127ZM-1.27707 9.35627L-1.05834 10.0375H-0.339604L-0.920871 10.4562L-0.70207 11.1375L-1.27707 10.7125L-1.85834 11.1375L-1.6396 10.45L-2.2146 10.0313H-1.502L-1.27707 9.35627ZM2.77293 9.35627L2.99793 10.0375H3.7104L3.12913 10.4562L3.3542 11.1375L2.77286 10.7125L2.19166 11.1375L2.41666 10.45L1.8354 10.0313H2.55413L2.77293 9.35627ZM6.8292 9.35627L7.04786 10.0375H7.76666L7.1854 10.4562L7.40413 11.1375L6.82913 10.7125L6.24793 11.1375L6.46666 10.45L5.89166 10.0313H6.6042L6.8292 9.35627ZM10.8792 9.35627L11.1042 10.0375H11.8167L11.2417 10.4562L11.4604 11.1375L10.8791 10.7125L10.3041 11.1375L10.5229 10.45L9.94166 10.0313H10.6667L10.8792 9.35627ZM14.9354 9.35627L15.1541 10.0375H15.8729L15.2917 10.4562L15.5104 11.1375L14.9354 10.7125L14.3541 11.1375L14.5729 10.45L13.9979 10.0313H14.7104L14.9354 9.35627ZM-3.30834 11.075L-3.08334 11.7625H-2.3708L-2.94587 12.1812L-2.72707 12.8563L-3.30834 12.4375L-3.88334 12.8562L-3.6646 12.175L-4.2458 11.7563H-3.5208L-3.30834 11.075ZM0.74793 11.075L0.966663 11.7625H1.6854L1.10413 12.1812L1.3292 12.8563L0.747863 12.4375L0.166663 12.8562L0.391663 12.175L-0.189604 11.7563H0.52293L0.74793 11.075ZM4.79793 11.075L5.02293 11.7625H5.7292L5.1542 12.1812L5.37286 12.8563L4.79166 12.4375L4.21666 12.8562L4.4354 12.175L3.85413 11.7563H4.57293L4.79793 11.075ZM8.8542 11.075L9.07286 11.7625H9.79166L9.2104 12.1812L9.4354 12.8563L8.85413 12.4375L8.27293 12.8562L8.49793 12.175L7.91666 11.7563H8.6292L8.8542 11.075ZM12.9042 11.075L13.1292 11.7625H13.8417L13.2667 12.1812L13.4854 12.8563L12.9041 12.4375L12.3291 12.8562L12.5479 12.175L11.9729 11.7563H12.6854L12.9042 11.075ZM16.9604 11.075L17.1791 11.7625H17.8979L17.3167 12.1812L17.5417 12.8563L16.9604 12.4375L16.3791 12.8562L16.6041 12.175L16.0229 11.7563H16.7417L16.9604 11.075ZM-1.27707 12.8L-1.05834 13.4813H-0.339604L-0.920871 13.9L-0.70207 14.5875L-1.27707 14.1625L-1.85834 14.5812L-1.6396 13.9L-2.2146 13.4813H-1.502L-1.27707 12.8ZM2.77293 12.8L2.99793 13.4813H3.7104L3.12913 13.9L3.3542 14.5875L2.77286 14.1625L2.19166 14.5812L2.41666 13.9L1.8354 13.4813H2.55413L2.77293 12.8ZM6.8292 12.8L7.04786 13.4813H7.76666L7.1854 13.9L7.40413 14.5875L6.82913 14.1625L6.24793 14.5812L6.46666 13.9L5.89166 13.4813H6.6042L6.8292 12.8ZM10.8792 12.8L11.1042 13.4813H11.8167L11.2417 13.9L11.4604 14.5875L10.8791 14.1625L10.3041 14.5812L10.5229 13.9L9.94166 13.4813H10.6667L10.8792 12.8ZM14.9354 12.8L15.1541 13.4813H15.8729L15.2917 13.9L15.5104 14.5875L14.9354 14.1625L14.3541 14.5812L14.5729 13.9L13.9979 13.4813H14.7104L14.9354 12.8ZM-3.30834 14.525L-3.08334 15.2063H-2.3708L-2.94587 15.625L-2.72707 16.3063L-3.30834 15.8875L-3.88334 16.3062L-3.6646 15.6187L-4.2458 15.2H-3.5208L-3.30834 14.525ZM0.74793 14.525L0.966663 15.2063H1.6854L1.10413 15.625L1.3292 16.3063L0.747863 15.8875L0.166663 16.3062L0.391663 15.6187L-0.189604 15.2H0.52293L0.74793 14.525ZM4.79793 14.525L5.02293 15.2063H5.7292L5.16666 15.625L5.3854 16.3063L4.80413 15.8875L4.22913 16.3062L4.44793 15.6187L3.86666 15.2H4.5854L4.79793 14.525ZM8.8542 14.525L9.07286 15.2063H9.79166L9.2104 15.625L9.4354 16.3063L8.85413 15.8875L8.27293 16.3062L8.49793 15.6187L7.91666 15.2H8.6292L8.8542 14.525ZM12.9042 14.525L13.1292 15.2063H13.8417L13.2667 15.625L13.4854 16.3063L12.9041 15.8875L12.3291 16.3062L12.5479 15.6187L11.9729 15.2H12.6854L12.9042 14.525ZM16.9604 14.525L17.1791 15.2063H17.8979L17.3167 15.625L17.5417 16.3063L16.9604 15.8875L16.3791 16.3062L16.6041 15.6187L16.0229 15.2H16.7417L16.9604 14.525Z" fill="white"/>
</g>
<defs>
<clipPath id="clip0_18_135">
<rect width="32" height="32" rx="16" fill="white"/>
</clipPath>
</defs>
</svg>
